<?xml version="1.0" standalone="no"?>
<!DOCTYPE svg PUBLIC "-//W3C//DTD SVG 20010904//EN"
 "http://www.w3.org/TR/2001/REC-SVG-20010904/DTD/svg10.dtd">
<svg version="1.0" xmlns="http://www.w3.org/2000/svg"
 width="50.000000pt" height="50.000000pt" viewBox="0 0 50.000000 50.000000"
 preserveAspectRatio="xMidYMid meet">

<g transform="translate(0.000000,50.000000) scale(0.100000,-0.100000)"
fill="#000000" stroke="none">
<path d="M203 350 c-13 -5 -23 -16 -23 -24 0 -8 -3 -21 -6 -29 -3 -8 2 -17 10
-20 13 -5 15 0 10 27 -5 32 -3 34 33 44 21 5 29 10 18 10 -11 1 -30 -3 -42 -8z"/>
<path d="M216 295 c4 -8 10 -15 16 -15 5 0 6 -4 3 -10 -3 -5 -20 -10 -37 -10
-17 0 -28 -3 -24 -7 4 -5 25 -8 47 -9 47 0 54 24 14 50 -21 14 -24 14 -19 1z"/>
<path d="M288 252 c-20 -28 -37 -35 -54 -21 -8 6 -17 9 -20 6 -9 -9 33 -27 50
-21 8 3 22 17 31 30 18 28 13 33 -7 6z"/>
<path d="M244 168 c-15 -19 -16 -20 -1 -9 14 11 17 11 17 -2 0 -9 8 -15 18
-14 25 1 24 27 0 27 -11 0 -16 5 -13 10 11 18 -1 11 -21 -12z"/>
<path d="M310 158 c0 -19 2 -20 10 -8 13 19 13 30 0 30 -5 0 -10 -10 -10 -22z"/>
<path d="M342 160 c0 -14 2 -19 5 -12 2 6 2 18 0 25 -3 6 -5 1 -5 -13z"/>
<path d="M390 166 c0 -8 4 -17 9 -20 5 -4 7 3 4 14 -6 23 -13 26 -13 6z"/>
<path d="M360 161 c0 -6 4 -12 8 -15 5 -3 9 1 9 9 0 8 -4 15 -9 15 -4 0 -8 -4
-8 -9z"/>
</g>
</svg>
